<?xml version="1.0" standalone="no"?>
<!DOCTYPE svg PUBLIC "-//W3C//DTD SVG 20010904//EN"
 "http://www.w3.org/TR/2001/REC-SVG-20010904/DTD/svg10.dtd">
<svg version="1.0" xmlns="http://www.w3.org/2000/svg"
 width="577.000000pt" height="577.000000pt" viewBox="0 0 577.000000 577.000000"
 preserveAspectRatio="xMidYMid meet">
<metadata>
Created by potrace 1.14, written by Peter Selinger 2001-2017
</metadata>
<g transform="translate(0.000000,577.000000) scale(0.100000,-0.100000)"
fill="#000000" stroke="none">
<path d="M2630 4546 c0 -8 -4 -16 -8 -18 -15 -6 -113 -177 -167 -291 -69 -146
-149 -374 -171 -487 -2 -14 -11 -54 -18 -90 -8 -36 -17 -81 -20 -100 -2 -19
-8 -55 -11 -80 -4 -25 -9 -56 -11 -70 -23 -167 -23 -647 0 -790 3 -14 7 -48
10 -75 5 -42 21 -135 40 -230 51 -250 163 -530 311 -772 l50 -82 189 -1 188 0
-14 23 c-8 12 -35 58 -60 102 -184 327 -296 702 -335 1115 -15 167 -9 577 12
730 10 76 18 127 21 145 3 11 7 36 10 55 14 86 98 387 124 445 5 11 31 72 58
135 48 115 154 314 172 325 32 20 -7 25 -180 25 -157 0 -190 -2 -190 -14z"/>
<path d="M3390 3394 c-191 -56 -210 -342 -30 -434 91 -46 224 -15 278 64 87
127 43 308 -87 362 -50 21 -108 24 -161 8z"/>
<path d="M3376 2319 c-141 -53 -184 -255 -78 -365 39 -40 44 -14 -47 -224 -28
-63 -49 -116 -47 -117 3 -4 102 -6 174 -4 30 1 38 10 143 169 62 92 121 187
132 212 26 60 28 171 3 220 -55 107 -169 151 -280 109z"/>
</g>
</svg>
